<svg width="1809" height="1809" viewBox="0 0 1809 1809" fill="none" xmlns="http://www.w3.org/2000/svg">
<circle cx="904.5" cy="904.5" r="904.5" fill="#143260"/>
<path fill-rule="evenodd" clip-rule="evenodd" d="M619.75 497.35L112 790.5L619.75 1083.65V941.621L358 790.5L619.75 639.379V497.35Z" fill="#F0F0F0"/>
<path fill-rule="evenodd" clip-rule="evenodd" d="M1189 1083.65L1696.75 790.5L1189 497.35V639.379L1450.75 790.5L1189 941.621V1083.65Z" fill="#F0F0F0"/>
<path fill-rule="evenodd" clip-rule="evenodd" d="M897.612 518.287L1062.63 565.726C1055.45 582.234 1047.7 606.73 1043.5 634.496L1088.4 647.403L1081.93 669.895L1040.92 658.105C1037.95 703.181 1046.13 752.943 1080.6 790.049L850.421 1047.16C852.963 1051.68 853.747 1057.31 852.153 1062.85C849.118 1073.41 838.606 1079.65 828.674 1076.8C818.743 1073.94 813.152 1063.07 816.187 1052.51C817.764 1047.03 821.36 1042.7 825.843 1040.22L765.371 699.428C789.673 692.912 834.106 666.399 866.293 607.904L828.054 596.911L834.52 574.419L876.802 586.574C885.446 566.888 892.669 544.232 897.612 518.287ZM924.553 771.165L846.585 1042.38C844.639 1040.65 842.306 1039.32 839.666 1038.56C836.17 1037.56 832.602 1037.68 829.313 1038.72L907.627 766.3C901.153 760.681 898.21 751.253 900.861 742.03C904.432 729.608 916.799 722.261 928.484 725.62C940.168 728.979 946.745 741.772 943.174 754.194C940.523 763.417 933.023 769.842 924.553 771.165Z" fill="#F0F0F0"/>
<path d="M651.936 1241.91C651.936 1253.62 649.248 1264.38 643.872 1274.17C638.496 1283.77 630.24 1291.54 619.104 1297.5C607.968 1303.45 594.144 1306.42 577.632 1306.42H547.104V1379H497.856V1176.82H577.632C593.76 1176.82 607.392 1179.61 618.528 1185.18C629.664 1190.74 638.016 1198.42 643.584 1208.22C649.152 1218.01 651.936 1229.24 651.936 1241.91ZM573.888 1267.26C583.296 1267.26 590.304 1265.05 594.912 1260.63C599.52 1256.22 601.824 1249.98 601.824 1241.91C601.824 1233.85 599.52 1227.61 594.912 1223.19C590.304 1218.78 583.296 1216.57 573.888 1216.57H547.104V1267.26H573.888ZM726.823 1245.08C732.583 1236.25 739.783 1229.34 748.423 1224.34C757.063 1219.16 766.663 1216.57 777.223 1216.57V1268.7H763.687C751.399 1268.7 742.183 1271.38 736.039 1276.76C729.895 1281.94 726.823 1291.16 726.823 1304.41V1379H677.575V1218.3H726.823V1245.08ZM873.914 1381.3C858.17 1381.3 843.962 1377.94 831.29 1371.22C818.81 1364.5 808.922 1354.9 801.626 1342.42C794.522 1329.94 790.97 1315.35 790.97 1298.65C790.97 1282.14 794.618 1267.64 801.914 1255.16C809.21 1242.49 819.194 1232.79 831.866 1226.07C844.538 1219.35 858.746 1215.99 874.49 1215.99C890.234 1215.99 904.442 1219.35 917.114 1226.07C929.786 1232.79 939.77 1242.49 947.066 1255.16C954.362 1267.64 958.01 1282.14 958.01 1298.65C958.01 1315.16 954.266 1329.75 946.778 1342.42C939.482 1354.9 929.402 1364.5 916.538 1371.22C903.866 1377.94 889.658 1381.3 873.914 1381.3ZM873.914 1338.68C883.322 1338.68 891.29 1335.22 897.818 1328.31C904.538 1321.4 907.898 1311.51 907.898 1298.65C907.898 1285.78 904.634 1275.9 898.106 1268.98C891.77 1262.07 883.898 1258.62 874.49 1258.62C864.89 1258.62 856.922 1262.07 850.586 1268.98C844.25 1275.7 841.082 1285.59 841.082 1298.65C841.082 1311.51 844.154 1321.4 850.298 1328.31C856.634 1335.22 864.506 1338.68 873.914 1338.68ZM1007.18 1381.3C998.537 1381.3 991.433 1378.81 985.865 1373.82C980.489 1368.63 977.801 1362.3 977.801 1354.81C977.801 1347.13 980.489 1340.7 985.865 1335.51C991.433 1330.33 998.537 1327.74 1007.18 1327.74C1015.63 1327.74 1022.54 1330.33 1027.91 1335.51C1033.48 1340.7 1036.27 1347.13 1036.27 1354.81C1036.27 1362.3 1033.48 1368.63 1027.91 1373.82C1022.54 1378.81 1015.63 1381.3 1007.18 1381.3ZM1090.19 1201.59C1081.55 1201.59 1074.44 1199.1 1068.87 1194.1C1063.5 1188.92 1060.81 1182.58 1060.81 1175.1C1060.81 1167.42 1063.5 1161.08 1068.87 1156.09C1074.44 1150.9 1081.55 1148.31 1090.19 1148.31C1098.63 1148.31 1105.55 1150.9 1110.92 1156.09C1116.49 1161.08 1119.27 1167.42 1119.27 1175.1C1119.27 1182.58 1116.49 1188.92 1110.92 1194.1C1105.55 1199.1 1098.63 1201.59 1090.19 1201.59ZM1114.67 1218.3V1379H1065.42V1218.3H1114.67ZM1140.56 1298.36C1140.56 1281.85 1143.64 1267.35 1149.78 1254.87C1156.12 1242.39 1164.66 1232.79 1175.41 1226.07C1186.16 1219.35 1198.16 1215.99 1211.41 1215.99C1221.97 1215.99 1231.57 1218.2 1240.21 1222.62C1249.04 1227.03 1255.96 1232.98 1260.95 1240.47V1165.88H1310.2V1379H1260.95V1355.96C1256.34 1363.64 1249.72 1369.78 1241.08 1374.39C1232.63 1379 1222.74 1381.3 1211.41 1381.3C1198.16 1381.3 1186.16 1377.94 1175.41 1371.22C1164.66 1364.31 1156.12 1354.62 1149.78 1342.14C1143.64 1329.46 1140.56 1314.87 1140.56 1298.36ZM1260.95 1298.65C1260.95 1286.36 1257.49 1276.66 1250.58 1269.56C1243.86 1262.46 1235.6 1258.9 1225.81 1258.9C1216.02 1258.9 1207.67 1262.46 1200.76 1269.56C1194.04 1276.47 1190.68 1286.07 1190.68 1298.36C1190.68 1310.65 1194.04 1320.44 1200.76 1327.74C1207.67 1334.84 1216.02 1338.39 1225.81 1338.39C1235.6 1338.39 1243.86 1334.84 1250.58 1327.74C1257.49 1320.63 1260.95 1310.94 1260.95 1298.65Z" fill="#F0F0F0"/>
</svg>
